<?xml version="1.0" encoding="UTF-8" standalone="no"?>
<!DOCTYPE svg PUBLIC "-//W3C//DTD SVG 1.1//EN"
 "http://www.w3.org/Graphics/SVG/1.1/DTD/svg11.dtd">
<!-- Generated by graphviz version 2.40.1 (20161225.0304)
 -->
<!-- Title: G Pages: 1 -->
<svg width="1136pt" height="776pt"
 viewBox="0.00 0.00 1135.91 776.00" xmlns="http://www.w3.org/2000/svg" xmlns:xlink="http://www.w3.org/1999/xlink">
<g id="graph0" class="graph" transform="scale(1 1) rotate(0) translate(4 772)">
<title>G</title>
<polygon fill="#ffffff" stroke="transparent" points="-4,4 -4,-772 1131.9088,-772 1131.9088,4 -4,4"/>
<!-- main -->
<g id="node1" class="node">
<title>main</title>
<ellipse fill="none" stroke="#000000" cx="647.9711" cy="-750" rx="27.5804" ry="18"/>
<text text-anchor="middle" x="647.9711" y="-745.8" font-family="Times,serif" font-size="14.00" fill="#000000">main</text>
</g>
<!-- basename -->
<g id="node2" class="node">
<title>basename</title>
<ellipse fill="none" stroke="#000000" cx="44.9711" cy="-492" rx="44.9423" ry="18"/>
<text text-anchor="middle" x="44.9711" y="-487.8" font-family="Times,serif" font-size="14.00" fill="#000000">basename</text>
</g>
<!-- main&#45;&gt;basename -->
<g id="edge1" class="edge">
<title>main&#45;&gt;basename</title>
<path fill="none" stroke="#000000" d="M620.4303,-746.7495C531.5096,-734.9814 247.7748,-687.3359 73.9711,-542 66.5881,-535.8263 60.6668,-527.2608 56.1482,-518.9621"/>
<polygon fill="#000000" stroke="#000000" points="59.2106,-517.259 51.6394,-509.8477 52.9363,-520.3629 59.2106,-517.259"/>
<text text-anchor="middle" x="211.4711" y="-616.8" font-family="Times,serif" font-size="14.00" fill="#000000">1</text>
</g>
<!-- add_envopt -->
<g id="node3" class="node">
<title>add_envopt</title>
<ellipse fill="none" stroke="#000000" cx="647.9711" cy="-664" rx="51.2329" ry="18"/>
<text text-anchor="middle" x="647.9711" y="-659.8" font-family="Times,serif" font-size="14.00" fill="#000000">add_envopt</text>
</g>
<!-- main&#45;&gt;add_envopt -->
<g id="edge2" class="edge">
<title>main&#45;&gt;add_envopt</title>
<path fill="none" stroke="#000000" d="M647.9711,-731.7616C647.9711,-720.3597 647.9711,-705.4342 647.9711,-692.494"/>
<polygon fill="#000000" stroke="#000000" points="651.4712,-692.2121 647.9711,-682.2121 644.4712,-692.2121 651.4712,-692.2121"/>
<text text-anchor="middle" x="651.4711" y="-702.8" font-family="Times,serif" font-size="14.00" fill="#000000">1</text>
</g>
<!-- getopt_long -->
<g id="node4" class="node">
<title>getopt_long</title>
<ellipse fill="none" stroke="#000000" cx="769.9711" cy="-664" rx="52.2106" ry="18"/>
<text text-anchor="middle" x="769.9711" y="-659.8" font-family="Times,serif" font-size="14.00" fill="#000000">getopt_long</text>
</g>
<!-- main&#45;&gt;getopt_long -->
<g id="edge3" class="edge">
<title>main&#45;&gt;getopt_long</title>
<path fill="none" stroke="#000000" d="M667.0336,-736.5625C686.1685,-723.074 715.974,-702.0635 738.5983,-686.1153"/>
<polygon fill="#000000" stroke="#000000" points="740.7236,-688.8994 746.8805,-680.277 736.6905,-683.178 740.7236,-688.8994"/>
<text text-anchor="middle" x="720.4711" y="-702.8" font-family="Times,serif" font-size="14.00" fill="#000000">2</text>
</g>
<!-- treat_file -->
<g id="node7" class="node">
<title>treat_file</title>
<ellipse fill="none" stroke="#000000" cx="536.9711" cy="-664" rx="41.5766" ry="18"/>
<text text-anchor="middle" x="536.9711" y="-659.8" font-family="Times,serif" font-size="14.00" fill="#000000">treat_file</text>
</g>
<!-- main&#45;&gt;treat_file -->
<g id="edge6" class="edge">
<title>main&#45;&gt;treat_file</title>
<path fill="none" stroke="#000000" d="M630.1371,-736.1826C612.6857,-722.6617 585.8267,-701.8521 565.4233,-686.044"/>
<polygon fill="#000000" stroke="#000000" points="567.4476,-683.1848 557.3989,-679.8269 563.1604,-688.7183 567.4476,-683.1848"/>
<text text-anchor="middle" x="603.4711" y="-702.8" font-family="Times,serif" font-size="14.00" fill="#000000">1</text>
</g>
<!-- do_exit -->
<g id="node37" class="node">
<title>do_exit</title>
<ellipse fill="none" stroke="#000000" cx="876.9711" cy="-664" rx="36.7663" ry="18"/>
<text text-anchor="middle" x="876.9711" y="-659.8" font-family="Times,serif" font-size="14.00" fill="#000000">do_exit</text>
</g>
<!-- main&#45;&gt;do_exit -->
<g id="edge46" class="edge">
<title>main&#45;&gt;do_exit</title>
<path fill="none" stroke="#000000" d="M672.2944,-741.113C707.4011,-728.2518 774.2854,-703.6207 830.9711,-682 833.5127,-681.0306 836.1306,-680.0251 838.7669,-679.0074"/>
<polygon fill="#000000" stroke="#000000" points="840.2351,-682.192 848.291,-675.3106 837.7021,-675.6663 840.2351,-682.192"/>
<text text-anchor="middle" x="784.4711" y="-702.8" font-family="Times,serif" font-size="14.00" fill="#000000">1</text>
</g>
<!-- _getopt_internal -->
<g id="node5" class="node">
<title>_getopt_internal</title>
<ellipse fill="none" stroke="#000000" cx="784.9711" cy="-578" rx="68.1287" ry="18"/>
<text text-anchor="middle" x="784.9711" y="-573.8" font-family="Times,serif" font-size="14.00" fill="#000000">_getopt_internal</text>
</g>
<!-- getopt_long&#45;&gt;_getopt_internal -->
<g id="edge4" class="edge">
<title>getopt_long&#45;&gt;_getopt_internal</title>
<path fill="none" stroke="#000000" d="M773.1523,-645.7616C775.1609,-634.2456 777.7964,-619.1353 780.0689,-606.1064"/>
<polygon fill="#000000" stroke="#000000" points="783.5242,-606.6648 781.7946,-596.2121 776.6283,-605.462 783.5242,-606.6648"/>
<text text-anchor="middle" x="782.4711" y="-616.8" font-family="Times,serif" font-size="14.00" fill="#000000">2</text>
</g>
<!-- my_index -->
<g id="node6" class="node">
<title>my_index</title>
<ellipse fill="none" stroke="#000000" cx="789.9711" cy="-492" rx="45.4527" ry="18"/>
<text text-anchor="middle" x="789.9711" y="-487.8" font-family="Times,serif" font-size="14.00" fill="#000000">my_index</text>
</g>
<!-- _getopt_internal&#45;&gt;my_index -->
<g id="edge5" class="edge">
<title>_getopt_internal&#45;&gt;my_index</title>
<path fill="none" stroke="#000000" d="M786.0315,-559.7616C786.6944,-548.3597 787.5622,-533.4342 788.3145,-520.494"/>
<polygon fill="#000000" stroke="#000000" points="791.8259,-520.3984 788.9123,-510.2121 784.8377,-519.9921 791.8259,-520.3984"/>
<text text-anchor="middle" x="791.4711" y="-530.8" font-family="Times,serif" font-size="14.00" fill="#000000">1</text>
</g>
<!-- get_istat -->
<g id="node8" class="node">
<title>get_istat</title>
<ellipse fill="none" stroke="#000000" cx="536.9711" cy="-578" rx="40.1403" ry="18"/>
<text text-anchor="middle" x="536.9711" y="-573.8" font-family="Times,serif" font-size="14.00" fill="#000000">get_istat</text>
</g>
<!-- treat_file&#45;&gt;get_istat -->
<g id="edge7" class="edge">
<title>treat_file&#45;&gt;get_istat</title>
<path fill="none" stroke="#000000" d="M536.9711,-645.7616C536.9711,-634.3597 536.9711,-619.4342 536.9711,-606.494"/>
<polygon fill="#000000" stroke="#000000" points="540.4712,-606.2121 536.9711,-596.2121 533.4712,-606.2121 540.4712,-606.2121"/>
<text text-anchor="middle" x="540.4711" y="-616.8" font-family="Times,serif" font-size="14.00" fill="#000000">1</text>
</g>
<!-- clear_bufs -->
<g id="node10" class="node">
<title>clear_bufs</title>
<ellipse fill="none" stroke="#000000" cx="641.9711" cy="-578" rx="46.8719" ry="18"/>
<text text-anchor="middle" x="641.9711" y="-573.8" font-family="Times,serif" font-size="14.00" fill="#000000">clear_bufs</text>
</g>
<!-- treat_file&#45;&gt;clear_bufs -->
<g id="edge9" class="edge">
<title>treat_file&#45;&gt;clear_bufs</title>
<path fill="none" stroke="#000000" d="M556.7208,-647.8241C572.8969,-634.5751 595.9796,-615.6692 614.0473,-600.8709"/>
<polygon fill="#000000" stroke="#000000" points="616.4345,-603.4399 621.953,-594.3958 611.999,-598.0245 616.4345,-603.4399"/>
<text text-anchor="middle" x="599.4711" y="-616.8" font-family="Times,serif" font-size="14.00" fill="#000000">1</text>
</g>
<!-- zip -->
<g id="node11" class="node">
<title>zip</title>
<ellipse fill="none" stroke="#000000" cx="392.9711" cy="-578" rx="27" ry="18"/>
<text text-anchor="middle" x="392.9711" y="-573.8" font-family="Times,serif" font-size="14.00" fill="#000000">zip</text>
</g>
<!-- treat_file&#45;&gt;zip -->
<g id="edge10" class="edge">
<title>treat_file&#45;&gt;zip</title>
<path fill="none" stroke="#000000" d="M512.5435,-649.4113C487.5645,-634.4932 448.7582,-611.3173 422.1725,-595.4397"/>
<polygon fill="#000000" stroke="#000000" points="423.7013,-592.2761 413.3212,-590.1535 420.112,-598.2859 423.7013,-592.2761"/>
<text text-anchor="middle" x="477.4711" y="-616.8" font-family="Times,serif" font-size="14.00" fill="#000000">1</text>
</g>
<!-- do_stat -->
<g id="node9" class="node">
<title>do_stat</title>
<ellipse fill="none" stroke="#000000" cx="690.9711" cy="-492" rx="35.806" ry="18"/>
<text text-anchor="middle" x="690.9711" y="-487.8" font-family="Times,serif" font-size="14.00" fill="#000000">do_stat</text>
</g>
<!-- get_istat&#45;&gt;do_stat -->
<g id="edge8" class="edge">
<title>get_istat&#45;&gt;do_stat</title>
<path fill="none" stroke="#000000" d="M562.4011,-563.7988C588.6109,-549.1622 629.574,-526.2867 658.1989,-510.3014"/>
<polygon fill="#000000" stroke="#000000" points="660.0005,-513.3041 667.0249,-505.3726 656.5875,-507.1925 660.0005,-513.3041"/>
<text text-anchor="middle" x="627.4711" y="-530.8" font-family="Times,serif" font-size="14.00" fill="#000000">1</text>
</g>
<!-- zip&#45;&gt;basename -->
<g id="edge21" class="edge">
<title>zip&#45;&gt;basename</title>
<path fill="none" stroke="#000000" d="M365.795,-576.8867C301.9691,-573.9243 144.317,-564.4871 96.9711,-542 84.7744,-536.2071 73.628,-526.4254 64.8105,-517.0421"/>
<polygon fill="#000000" stroke="#000000" points="67.2368,-514.5033 57.9796,-509.3501 62.0028,-519.1514 67.2368,-514.5033"/>
<text text-anchor="middle" x="100.4711" y="-530.8" font-family="Times,serif" font-size="14.00" fill="#000000">1</text>
</g>
<!-- updcrc -->
<g id="node12" class="node">
<title>updcrc</title>
<ellipse fill="none" stroke="#000000" cx="151.9711" cy="-190" rx="34.3354" ry="18"/>
<text text-anchor="middle" x="151.9711" y="-185.8" font-family="Times,serif" font-size="14.00" fill="#000000">updcrc</text>
</g>
<!-- zip&#45;&gt;updcrc -->
<g id="edge11" class="edge">
<title>zip&#45;&gt;updcrc</title>
<path fill="none" stroke="#000000" d="M366.1023,-575.3905C296.9052,-567.9312 117.9711,-543.649 117.9711,-492 117.9711,-492 117.9711,-492 117.9711,-298 117.9711,-269.1915 129.1141,-237.9724 138.6417,-216.5442"/>
<polygon fill="#000000" stroke="#000000" points="141.8353,-217.9769 142.8598,-207.4317 135.4828,-215.0364 141.8353,-217.9769"/>
<text text-anchor="middle" x="121.4711" y="-379.8" font-family="Times,serif" font-size="14.00" fill="#000000">1</text>
</g>
<!-- bi_init -->
<g id="node13" class="node">
<title>bi_init</title>
<ellipse fill="none" stroke="#000000" cx="476.9711" cy="-492" rx="33.4012" ry="18"/>
<text text-anchor="middle" x="476.9711" y="-487.8" font-family="Times,serif" font-size="14.00" fill="#000000">bi_init</text>
</g>
<!-- zip&#45;&gt;bi_init -->
<g id="edge12" class="edge">
<title>zip&#45;&gt;bi_init</title>
<path fill="none" stroke="#000000" d="M409.7175,-563.705C417.0375,-557.2609 425.6134,-549.4403 432.9711,-542 440.981,-533.9002 449.3421,-524.6299 456.5979,-516.2894"/>
<polygon fill="#000000" stroke="#000000" points="459.3035,-518.5112 463.1682,-508.6464 453.9952,-513.9479 459.3035,-518.5112"/>
<text text-anchor="middle" x="449.4711" y="-530.8" font-family="Times,serif" font-size="14.00" fill="#000000">1</text>
</g>
<!-- ct_init -->
<g id="node14" class="node">
<title>ct_init</title>
<ellipse fill="none" stroke="#000000" cx="573.9711" cy="-384" rx="32.9081" ry="18"/>
<text text-anchor="middle" x="573.9711" y="-379.8" font-family="Times,serif" font-size="14.00" fill="#000000">ct_init</text>
</g>
<!-- zip&#45;&gt;ct_init -->
<g id="edge13" class="edge">
<title>zip&#45;&gt;ct_init</title>
<path fill="none" stroke="#000000" d="M394.6244,-559.7715C398.7339,-526.0989 412.6217,-454.4478 457.9711,-420 485.2687,-399.2646 500.4816,-412.9334 532.9711,-402 535.2091,-401.2469 537.4932,-400.4191 539.781,-399.5449"/>
<polygon fill="#000000" stroke="#000000" points="541.1487,-402.7671 549.0978,-395.7627 538.5157,-396.2812 541.1487,-402.7671"/>
<text text-anchor="middle" x="421.4711" y="-487.8" font-family="Times,serif" font-size="14.00" fill="#000000">1</text>
</g>
<!-- lm_init -->
<g id="node18" class="node">
<title>lm_init</title>
<ellipse fill="none" stroke="#000000" cx="202.9711" cy="-438" rx="35.8147" ry="18"/>
<text text-anchor="middle" x="202.9711" y="-433.8" font-family="Times,serif" font-size="14.00" fill="#000000">lm_init</text>
</g>
<!-- zip&#45;&gt;lm_init -->
<g id="edge18" class="edge">
<title>zip&#45;&gt;lm_init</title>
<path fill="none" stroke="#000000" d="M374.7531,-564.5762C341.5944,-540.1434 271.1597,-488.2442 231.5526,-459.06"/>
<polygon fill="#000000" stroke="#000000" points="233.2514,-455.9642 223.1246,-452.8499 229.099,-461.5996 233.2514,-455.9642"/>
<text text-anchor="middle" x="345.4711" y="-530.8" font-family="Times,serif" font-size="14.00" fill="#000000">1</text>
</g>
<!-- deflate -->
<g id="node20" class="node">
<title>deflate</title>
<ellipse fill="none" stroke="#000000" cx="348.9711" cy="-492" rx="33.8596" ry="18"/>
<text text-anchor="middle" x="348.9711" y="-487.8" font-family="Times,serif" font-size="14.00" fill="#000000">deflate</text>
</g>
<!-- zip&#45;&gt;deflate -->
<g id="edge22" class="edge">
<title>zip&#45;&gt;deflate</title>
<path fill="none" stroke="#000000" d="M384.0671,-560.5966C377.8646,-548.4736 369.4787,-532.0829 362.4594,-518.3635"/>
<polygon fill="#000000" stroke="#000000" points="365.5326,-516.6858 357.862,-509.3775 359.3009,-519.8742 365.5326,-516.6858"/>
<text text-anchor="middle" x="377.4711" y="-530.8" font-family="Times,serif" font-size="14.00" fill="#000000">1</text>
</g>
<!-- flush_outbuf -->
<g id="node35" class="node">
<title>flush_outbuf</title>
<ellipse fill="none" stroke="#000000" cx="582.9711" cy="-492" rx="54.642" ry="18"/>
<text text-anchor="middle" x="582.9711" y="-487.8" font-family="Times,serif" font-size="14.00" fill="#000000">flush_outbuf</text>
</g>
<!-- zip&#45;&gt;flush_outbuf -->
<g id="edge44" class="edge">
<title>zip&#45;&gt;flush_outbuf</title>
<path fill="none" stroke="#000000" d="M415.5128,-567.797C446.4139,-553.8101 502.4972,-528.4251 541.1908,-510.9111"/>
<polygon fill="#000000" stroke="#000000" points="542.9606,-513.9519 550.6276,-506.6397 540.0741,-507.5748 542.9606,-513.9519"/>
<text text-anchor="middle" x="503.4711" y="-530.8" font-family="Times,serif" font-size="14.00" fill="#000000">1</text>
</g>
<!-- gen_codes -->
<g id="node15" class="node">
<title>gen_codes</title>
<ellipse fill="none" stroke="#000000" cx="579.9711" cy="-104" rx="47.365" ry="18"/>
<text text-anchor="middle" x="579.9711" y="-99.8" font-family="Times,serif" font-size="14.00" fill="#000000">gen_codes</text>
</g>
<!-- ct_init&#45;&gt;gen_codes -->
<g id="edge14" class="edge">
<title>ct_init&#45;&gt;gen_codes</title>
<path fill="none" stroke="#000000" d="M574.3648,-365.6284C575.3886,-317.8516 578.1399,-189.4588 579.3665,-132.2158"/>
<polygon fill="#000000" stroke="#000000" points="582.8687,-132.1479 579.5838,-122.0752 575.8703,-131.9979 582.8687,-132.1479"/>
<text text-anchor="middle" x="581.4711" y="-239.8" font-family="Times,serif" font-size="14.00" fill="#000000">1</text>
</g>
<!-- bi_reverse -->
<g id="node16" class="node">
<title>bi_reverse</title>
<ellipse fill="none" stroke="#000000" cx="520.9711" cy="-18" rx="46.8719" ry="18"/>
<text text-anchor="middle" x="520.9711" y="-13.8" font-family="Times,serif" font-size="14.00" fill="#000000">bi_reverse</text>
</g>
<!-- ct_init&#45;&gt;bi_reverse -->
<g id="edge16" class="edge">
<title>ct_init&#45;&gt;bi_reverse</title>
<path fill="none" stroke="#000000" d="M552.5173,-369.9927C532.2622,-354.8884 504.9711,-328.8189 504.9711,-298 504.9711,-298 504.9711,-298 504.9711,-104 504.9711,-84.2548 509.0981,-62.3833 513.1601,-45.6383"/>
<polygon fill="#000000" stroke="#000000" points="516.5536,-46.4951 515.6434,-35.9394 509.7723,-44.7587 516.5536,-46.4951"/>
<text text-anchor="middle" x="511.9711" y="-185.8" font-family="Times,serif" font-size="14.00" fill="#000000">30</text>
</g>
<!-- init_block -->
<g id="node17" class="node">
<title>init_block</title>
<ellipse fill="none" stroke="#000000" cx="430.9711" cy="-298" rx="45.9373" ry="18"/>
<text text-anchor="middle" x="430.9711" y="-293.8" font-family="Times,serif" font-size="14.00" fill="#000000">init_block</text>
</g>
<!-- ct_init&#45;&gt;init_block -->
<g id="edge17" class="edge">
<title>ct_init&#45;&gt;init_block</title>
<path fill="none" stroke="#000000" d="M549.1342,-372.1266C543.8738,-369.8874 538.2995,-367.7138 532.9711,-366 496.2103,-354.1764 476.8526,-373.6325 447.9711,-348 441.6066,-342.3515 437.6225,-334.2266 435.1293,-326.1634"/>
<polygon fill="#000000" stroke="#000000" points="438.4643,-325.0647 432.7017,-316.1741 431.6622,-326.7178 438.4643,-325.0647"/>
<text text-anchor="middle" x="451.4711" y="-336.8" font-family="Times,serif" font-size="14.00" fill="#000000">1</text>
</g>
<!-- gen_codes&#45;&gt;bi_reverse -->
<g id="edge15" class="edge">
<title>gen_codes&#45;&gt;bi_reverse</title>
<path fill="none" stroke="#000000" d="M567.7463,-86.1807C559.3846,-73.9924 548.1637,-57.6367 538.8082,-43.9998"/>
<polygon fill="#000000" stroke="#000000" points="541.5218,-41.7682 532.9785,-35.5022 535.7495,-45.7282 541.5218,-41.7682"/>
<text text-anchor="middle" x="565.4711" y="-56.8" font-family="Times,serif" font-size="14.00" fill="#000000">367</text>
</g>
<!-- file_read -->
<g id="node19" class="node">
<title>file_read</title>
<ellipse fill="none" stroke="#000000" cx="186.9711" cy="-298" rx="41.092" ry="18"/>
<text text-anchor="middle" x="186.9711" y="-293.8" font-family="Times,serif" font-size="14.00" fill="#000000">file_read</text>
</g>
<!-- lm_init&#45;&gt;file_read -->
<g id="edge19" class="edge">
<title>lm_init&#45;&gt;file_read</title>
<path fill="none" stroke="#000000" d="M184.2188,-422.637C178.5253,-416.8343 172.9833,-409.7438 169.9711,-402 160.2948,-377.124 167.1689,-346.8239 174.872,-325.3615"/>
<polygon fill="#000000" stroke="#000000" points="178.1937,-326.4755 178.5318,-315.886 171.6639,-323.9533 178.1937,-326.4755"/>
<text text-anchor="middle" x="173.4711" y="-379.8" font-family="Times,serif" font-size="14.00" fill="#000000">1</text>
</g>
<!-- file_read&#45;&gt;updcrc -->
<g id="edge20" class="edge">
<title>file_read&#45;&gt;updcrc</title>
<path fill="none" stroke="#000000" d="M181.1916,-280.166C175.6693,-263.1257 167.2652,-237.1929 160.8851,-217.506"/>
<polygon fill="#000000" stroke="#000000" points="164.1718,-216.2944 157.7593,-207.8605 157.5127,-218.4525 164.1718,-216.2944"/>
<text text-anchor="middle" x="178.4711" y="-239.8" font-family="Times,serif" font-size="14.00" fill="#000000">1</text>
</g>
<!-- ct_tally -->
<g id="node21" class="node">
<title>ct_tally</title>
<ellipse fill="none" stroke="#000000" cx="345.9711" cy="-384" rx="36.7576" ry="18"/>
<text text-anchor="middle" x="345.9711" y="-379.8" font-family="Times,serif" font-size="14.00" fill="#000000">ct_tally</text>
</g>
<!-- deflate&#45;&gt;ct_tally -->
<g id="edge23" class="edge">
<title>deflate&#45;&gt;ct_tally</title>
<path fill="none" stroke="#000000" d="M347.8063,-473.6925C347.4854,-468.0235 347.1709,-461.7554 346.9711,-456 346.4732,-441.6518 346.2207,-425.6871 346.0938,-412.4438"/>
<polygon fill="#000000" stroke="#000000" points="349.5908,-412.0275 346.014,-402.0547 342.591,-412.0813 349.5908,-412.0275"/>
<text text-anchor="middle" x="357.4711" y="-433.8" font-family="Times,serif" font-size="14.00" fill="#000000">130</text>
</g>
<!-- longest_match -->
<g id="node22" class="node">
<title>longest_match</title>
<ellipse fill="none" stroke="#000000" cx="461.9711" cy="-384" rx="61.8649" ry="18"/>
<text text-anchor="middle" x="461.9711" y="-379.8" font-family="Times,serif" font-size="14.00" fill="#000000">longest_match</text>
</g>
<!-- deflate&#45;&gt;longest_match -->
<g id="edge24" class="edge">
<title>deflate&#45;&gt;longest_match</title>
<path fill="none" stroke="#000000" d="M358.4911,-474.5113C369.4435,-454.5852 386.4962,-424.2192 390.9711,-420 397.9865,-413.3856 406.4512,-407.7026 415.0543,-402.9347"/>
<polygon fill="#000000" stroke="#000000" points="416.7429,-406.0018 424.0148,-398.2966 413.525,-399.7853 416.7429,-406.0018"/>
<text text-anchor="middle" x="397.9711" y="-433.8" font-family="Times,serif" font-size="14.00" fill="#000000">69</text>
</g>
<!-- fill_window -->
<g id="node23" class="node">
<title>fill_window</title>
<ellipse fill="none" stroke="#000000" cx="238.9711" cy="-384" rx="52.7124" ry="18"/>
<text text-anchor="middle" x="238.9711" y="-379.8" font-family="Times,serif" font-size="14.00" fill="#000000">fill_window</text>
</g>
<!-- deflate&#45;&gt;fill_window -->
<g id="edge25" class="edge">
<title>deflate&#45;&gt;fill_window</title>
<path fill="none" stroke="#000000" d="M332.7403,-476.0642C314.537,-458.1919 284.8058,-429.0013 263.7053,-408.2844"/>
<polygon fill="#000000" stroke="#000000" points="265.947,-405.5804 256.3592,-401.0719 261.0428,-410.5754 265.947,-405.5804"/>
<text text-anchor="middle" x="314.4711" y="-433.8" font-family="Times,serif" font-size="14.00" fill="#000000">1</text>
</g>
<!-- flush_block -->
<g id="node24" class="node">
<title>flush_block</title>
<ellipse fill="none" stroke="#000000" cx="737.9711" cy="-384" rx="51.2587" ry="18"/>
<text text-anchor="middle" x="737.9711" y="-379.8" font-family="Times,serif" font-size="14.00" fill="#000000">flush_block</text>
</g>
<!-- deflate&#45;&gt;flush_block -->
<g id="edge27" class="edge">
<title>deflate&#45;&gt;flush_block</title>
<path fill="none" stroke="#000000" d="M376.2187,-481.2393C382.9556,-478.7295 390.1871,-476.1612 396.9711,-474 497.5488,-441.9587 617.3105,-412.2564 684.804,-396.2741"/>
<polygon fill="#000000" stroke="#000000" points="685.8457,-399.6245 694.7754,-393.9227 684.239,-392.8114 685.8457,-399.6245"/>
<text text-anchor="middle" x="585.4711" y="-433.8" font-family="Times,serif" font-size="14.00" fill="#000000">1</text>
</g>
<!-- fill_window&#45;&gt;file_read -->
<g id="edge26" class="edge">
<title>fill_window&#45;&gt;file_read</title>
<path fill="none" stroke="#000000" d="M228.1967,-366.1807C220.8972,-354.1085 211.1256,-337.9478 202.928,-324.3901"/>
<polygon fill="#000000" stroke="#000000" points="205.7232,-322.2485 197.5539,-315.5022 199.733,-325.8705 205.7232,-322.2485"/>
<text text-anchor="middle" x="220.4711" y="-336.8" font-family="Times,serif" font-size="14.00" fill="#000000">1</text>
</g>
<!-- flush_block&#45;&gt;init_block -->
<g id="edge42" class="edge">
<title>flush_block&#45;&gt;init_block</title>
<path fill="none" stroke="#000000" d="M697.8363,-372.757C641.3328,-356.9287 538.526,-328.1294 478.3457,-311.2711"/>
<polygon fill="#000000" stroke="#000000" points="479.2801,-307.8981 468.7067,-308.5709 477.3919,-314.6387 479.2801,-307.8981"/>
<text text-anchor="middle" x="606.4711" y="-336.8" font-family="Times,serif" font-size="14.00" fill="#000000">1</text>
</g>
<!-- build_tree -->
<g id="node25" class="node">
<title>build_tree</title>
<ellipse fill="none" stroke="#000000" cx="647.9711" cy="-190" rx="45.92" ry="18"/>
<text text-anchor="middle" x="647.9711" y="-185.8" font-family="Times,serif" font-size="14.00" fill="#000000">build_tree</text>
</g>
<!-- flush_block&#45;&gt;build_tree -->
<g id="edge28" class="edge">
<title>flush_block&#45;&gt;build_tree</title>
<path fill="none" stroke="#000000" d="M713.4527,-368.0329C696.9019,-355.8542 676.1143,-337.5364 664.9711,-316 649.1021,-285.3297 646.2798,-245.0895 646.4846,-218.4301"/>
<polygon fill="#000000" stroke="#000000" points="649.9879,-218.3216 646.7155,-208.2448 642.9897,-218.1629 649.9879,-218.3216"/>
<text text-anchor="middle" x="668.4711" y="-293.8" font-family="Times,serif" font-size="14.00" fill="#000000">2</text>
</g>
<!-- build_bl_tree -->
<g id="node28" class="node">
<title>build_bl_tree</title>
<ellipse fill="none" stroke="#000000" cx="737.9711" cy="-298" rx="57.0219" ry="18"/>
<text text-anchor="middle" x="737.9711" y="-293.8" font-family="Times,serif" font-size="14.00" fill="#000000">build_bl_tree</text>
</g>
<!-- flush_block&#45;&gt;build_bl_tree -->
<g id="edge32" class="edge">
<title>flush_block&#45;&gt;build_bl_tree</title>
<path fill="none" stroke="#000000" d="M737.9711,-365.7616C737.9711,-354.3597 737.9711,-339.4342 737.9711,-326.494"/>
<polygon fill="#000000" stroke="#000000" points="741.4712,-326.2121 737.9711,-316.2121 734.4712,-326.2121 741.4712,-326.2121"/>
<text text-anchor="middle" x="741.4711" y="-336.8" font-family="Times,serif" font-size="14.00" fill="#000000">1</text>
</g>
<!-- send_bits -->
<g id="node30" class="node">
<title>send_bits</title>
<ellipse fill="none" stroke="#000000" cx="941.9711" cy="-104" rx="43.5319" ry="18"/>
<text text-anchor="middle" x="941.9711" y="-99.8" font-family="Times,serif" font-size="14.00" fill="#000000">send_bits</text>
</g>
<!-- flush_block&#45;&gt;send_bits -->
<g id="edge35" class="edge">
<title>flush_block&#45;&gt;send_bits</title>
<path fill="none" stroke="#000000" d="M757.3692,-367.2554C771.5549,-354.2938 790.5793,-335.3427 803.9711,-316 853.2005,-244.8946 830.2088,-205.2498 886.9711,-140 892.2904,-133.8854 898.8909,-128.3929 905.6525,-123.648"/>
<polygon fill="#000000" stroke="#000000" points="907.7646,-126.4488 914.219,-118.0469 903.9338,-120.5899 907.7646,-126.4488"/>
<text text-anchor="middle" x="846.4711" y="-239.8" font-family="Times,serif" font-size="14.00" fill="#000000">1</text>
</g>
<!-- send_all_trees -->
<g id="node31" class="node">
<title>send_all_trees</title>
<ellipse fill="none" stroke="#000000" cx="914.9711" cy="-298" rx="60.8873" ry="18"/>
<text text-anchor="middle" x="914.9711" y="-293.8" font-family="Times,serif" font-size="14.00" fill="#000000">send_all_trees</text>
</g>
<!-- flush_block&#45;&gt;send_all_trees -->
<g id="edge36" class="edge">
<title>flush_block&#45;&gt;send_all_trees</title>
<path fill="none" stroke="#000000" d="M777.6574,-372.534C796.9318,-366.3327 820.1514,-357.9099 839.9711,-348 855.3569,-340.3071 871.3576,-330.0022 884.6085,-320.7466"/>
<polygon fill="#000000" stroke="#000000" points="886.7688,-323.5051 892.885,-314.8539 882.7088,-317.8027 886.7688,-323.5051"/>
<text text-anchor="middle" x="867.4711" y="-336.8" font-family="Times,serif" font-size="14.00" fill="#000000">1</text>
</g>
<!-- compress_block -->
<g id="node33" class="node">
<title>compress_block</title>
<ellipse fill="none" stroke="#000000" cx="1015.9711" cy="-244" rx="67.6529" ry="18"/>
<text text-anchor="middle" x="1015.9711" y="-239.8" font-family="Times,serif" font-size="14.00" fill="#000000">compress_block</text>
</g>
<!-- flush_block&#45;&gt;compress_block -->
<g id="edge40" class="edge">
<title>flush_block&#45;&gt;compress_block</title>
<path fill="none" stroke="#000000" d="M776.9322,-372.1604C784.2357,-370.0385 791.8214,-367.9001 798.9711,-366 881.7011,-344.0144 920.8227,-372.6796 984.9711,-316 997.8151,-304.6515 1005.5243,-287.044 1010.0425,-272.0821"/>
<polygon fill="#000000" stroke="#000000" points="1013.4678,-272.8219 1012.6845,-262.256 1006.7079,-271.0042 1013.4678,-272.8219"/>
<text text-anchor="middle" x="962.4711" y="-336.8" font-family="Times,serif" font-size="14.00" fill="#000000">1</text>
</g>
<!-- bi_windup -->
<g id="node34" class="node">
<title>bi_windup</title>
<ellipse fill="none" stroke="#000000" cx="1079.9711" cy="-298" rx="47.8754" ry="18"/>
<text text-anchor="middle" x="1079.9711" y="-293.8" font-family="Times,serif" font-size="14.00" fill="#000000">bi_windup</text>
</g>
<!-- flush_block&#45;&gt;bi_windup -->
<g id="edge43" class="edge">
<title>flush_block&#45;&gt;bi_windup</title>
<path fill="none" stroke="#000000" d="M775.4249,-371.6454C783.1418,-369.4692 791.2654,-367.4424 798.9711,-366 893.6594,-348.2761 925.1372,-382.7832 1014.9711,-348 1029.9282,-342.2087 1044.3087,-331.8317 1055.7237,-322.0265"/>
<polygon fill="#000000" stroke="#000000" points="1058.3769,-324.348 1063.4773,-315.0616 1053.699,-319.1405 1058.3769,-324.348"/>
<text text-anchor="middle" x="1041.4711" y="-336.8" font-family="Times,serif" font-size="14.00" fill="#000000">1</text>
</g>
<!-- build_tree&#45;&gt;gen_codes -->
<g id="edge31" class="edge">
<title>build_tree&#45;&gt;gen_codes</title>
<path fill="none" stroke="#000000" d="M634.2103,-172.5966C624.4404,-160.2405 611.1649,-143.4509 600.1932,-129.575"/>
<polygon fill="#000000" stroke="#000000" points="602.6594,-127.0508 593.7115,-121.3775 597.1684,-131.3925 602.6594,-127.0508"/>
<text text-anchor="middle" x="622.4711" y="-142.8" font-family="Times,serif" font-size="14.00" fill="#000000">3</text>
</g>
<!-- pqdownheap -->
<g id="node26" class="node">
<title>pqdownheap</title>
<ellipse fill="none" stroke="#000000" cx="700.9711" cy="-104" rx="55.0922" ry="18"/>
<text text-anchor="middle" x="700.9711" y="-99.8" font-family="Times,serif" font-size="14.00" fill="#000000">pqdownheap</text>
</g>
<!-- build_tree&#45;&gt;pqdownheap -->
<g id="edge29" class="edge">
<title>build_tree&#45;&gt;pqdownheap</title>
<path fill="none" stroke="#000000" d="M658.9528,-172.1807C666.3434,-160.1885 676.2203,-144.1617 684.5412,-130.6598"/>
<polygon fill="#000000" stroke="#000000" points="687.7367,-132.1459 690.0036,-121.7964 681.7774,-128.4733 687.7367,-132.1459"/>
<text text-anchor="middle" x="688.4711" y="-142.8" font-family="Times,serif" font-size="14.00" fill="#000000">190</text>
</g>
<!-- gen_bitlen -->
<g id="node27" class="node">
<title>gen_bitlen</title>
<ellipse fill="none" stroke="#000000" cx="821.9711" cy="-104" rx="47.3736" ry="18"/>
<text text-anchor="middle" x="821.9711" y="-99.8" font-family="Times,serif" font-size="14.00" fill="#000000">gen_bitlen</text>
</g>
<!-- build_tree&#45;&gt;gen_bitlen -->
<g id="edge30" class="edge">
<title>build_tree&#45;&gt;gen_bitlen</title>
<path fill="none" stroke="#000000" d="M676.7037,-175.7988C705.9588,-161.3395 751.482,-138.8395 783.7619,-122.885"/>
<polygon fill="#000000" stroke="#000000" points="785.4917,-125.9343 792.9056,-118.3657 782.39,-119.659 785.4917,-125.9343"/>
<text text-anchor="middle" x="749.4711" y="-142.8" font-family="Times,serif" font-size="14.00" fill="#000000">3</text>
</g>
<!-- build_bl_tree&#45;&gt;build_tree -->
<g id="edge34" class="edge">
<title>build_bl_tree&#45;&gt;build_tree</title>
<path fill="none" stroke="#000000" d="M723.1095,-280.166C708.2777,-262.3679 685.3619,-234.8689 668.7361,-214.9179"/>
<polygon fill="#000000" stroke="#000000" points="671.3505,-212.5881 662.2599,-207.1465 665.973,-217.0694 671.3505,-212.5881"/>
<text text-anchor="middle" x="710.4711" y="-239.8" font-family="Times,serif" font-size="14.00" fill="#000000">1</text>
</g>
<!-- scan_tree -->
<g id="node29" class="node">
<title>scan_tree</title>
<ellipse fill="none" stroke="#000000" cx="754.9711" cy="-190" rx="43.4887" ry="18"/>
<text text-anchor="middle" x="754.9711" y="-185.8" font-family="Times,serif" font-size="14.00" fill="#000000">scan_tree</text>
</g>
<!-- build_bl_tree&#45;&gt;scan_tree -->
<g id="edge33" class="edge">
<title>build_bl_tree&#45;&gt;scan_tree</title>
<path fill="none" stroke="#000000" d="M740.855,-279.6793C743.5086,-262.821 747.484,-237.5651 750.5406,-218.147"/>
<polygon fill="#000000" stroke="#000000" points="754.0323,-218.4728 752.1299,-208.0502 747.1175,-217.3843 754.0323,-218.4728"/>
<text text-anchor="middle" x="753.4711" y="-239.8" font-family="Times,serif" font-size="14.00" fill="#000000">2</text>
</g>
<!-- send_all_trees&#45;&gt;send_bits -->
<g id="edge37" class="edge">
<title>send_all_trees&#45;&gt;send_bits</title>
<path fill="none" stroke="#000000" d="M903.16,-280.1087C888.3759,-255.349 866.6339,-209.4532 880.9711,-172 887.6385,-154.5827 901.0518,-138.8185 913.6066,-126.8638"/>
<polygon fill="#000000" stroke="#000000" points="916.1918,-129.2441 921.2448,-119.9319 911.4875,-124.0605 916.1918,-129.2441"/>
<text text-anchor="middle" x="887.9711" y="-185.8" font-family="Times,serif" font-size="14.00" fill="#000000">19</text>
</g>
<!-- send_tree -->
<g id="node32" class="node">
<title>send_tree</title>
<ellipse fill="none" stroke="#000000" cx="947.9711" cy="-190" rx="43.9819" ry="18"/>
<text text-anchor="middle" x="947.9711" y="-185.8" font-family="Times,serif" font-size="14.00" fill="#000000">send_tree</text>
</g>
<!-- send_all_trees&#45;&gt;send_tree -->
<g id="edge38" class="edge">
<title>send_all_trees&#45;&gt;send_tree</title>
<path fill="none" stroke="#000000" d="M918.2539,-279.9868C921.1673,-265.2632 925.9007,-244.0133 931.9711,-226 932.9656,-223.049 934.1125,-220.0089 935.3261,-217.0047"/>
<polygon fill="#000000" stroke="#000000" points="938.5986,-218.2539 939.3252,-207.684 932.1657,-215.4938 938.5986,-218.2539"/>
<text text-anchor="middle" x="935.4711" y="-239.8" font-family="Times,serif" font-size="14.00" fill="#000000">2</text>
</g>
<!-- send_tree&#45;&gt;send_bits -->
<g id="edge39" class="edge">
<title>send_tree&#45;&gt;send_bits</title>
<path fill="none" stroke="#000000" d="M946.6987,-171.7616C945.9032,-160.3597 944.8619,-145.4342 943.9591,-132.494"/>
<polygon fill="#000000" stroke="#000000" points="947.4293,-131.9442 943.2418,-122.2121 940.4463,-132.4315 947.4293,-131.9442"/>
<text text-anchor="middle" x="952.9711" y="-142.8" font-family="Times,serif" font-size="14.00" fill="#000000">99</text>
</g>
<!-- compress_block&#45;&gt;send_bits -->
<g id="edge41" class="edge">
<title>compress_block&#45;&gt;send_bits</title>
<path fill="none" stroke="#000000" d="M1014.727,-225.7142C1013.1133,-210.6411 1009.4176,-189.0471 1000.9711,-172 992.7537,-155.415 979.5136,-139.623 967.6562,-127.4392"/>
<polygon fill="#000000" stroke="#000000" points="970.072,-124.9057 960.5092,-120.3446 965.1404,-129.8736 970.072,-124.9057"/>
<text text-anchor="middle" x="1023.4711" y="-185.8" font-family="Times,serif" font-size="14.00" fill="#000000">221</text>
</g>
<!-- write_buf -->
<g id="node36" class="node">
<title>write_buf</title>
<ellipse fill="none" stroke="#000000" cx="851.9711" cy="-384" rx="44.475" ry="18"/>
<text text-anchor="middle" x="851.9711" y="-379.8" font-family="Times,serif" font-size="14.00" fill="#000000">write_buf</text>
</g>
<!-- flush_outbuf&#45;&gt;write_buf -->
<g id="edge45" class="edge">
<title>flush_outbuf&#45;&gt;write_buf</title>
<path fill="none" stroke="#000000" d="M617.8624,-477.9916C667.3789,-458.1114 757.8735,-421.779 810.6729,-400.5807"/>
<polygon fill="#000000" stroke="#000000" points="812.0987,-403.7799 820.0746,-396.806 809.4906,-397.2839 812.0987,-403.7799"/>
<text text-anchor="middle" x="761.4711" y="-433.8" font-family="Times,serif" font-size="14.00" fill="#000000">1</text>
</g>
</g>
</svg>
